[Header]
FileType HTR
DataType HTRS
FileVersion 1
NumSegments 64
NumFrames 3
DataFrameRate 24
EulerRotationOrder ZYX
CalibrationUnits mm
RotationUnits Degrees
GlobalAxisofGravity Y
BoneLengthAxis Y
ScaleFactor 1.0
[SegmentNames&Hierarchy]
Hips	GLOBAL
Spine	Hips
Spine1	Spine
Spine2	Spine1
Neck	Spine2
Head	Neck
LeftEye	Head
RightEye	Head
LeftShoulder	Spine2
LeftArm	LeftShoulder
LeftForeArm	LeftArm
LeftHand	LeftForeArm
LeftHandThumb1	LeftHand
LeftHandThumb2	LeftHandThumb1
LeftHandThumb3	LeftHandThumb2
LeftHandThumb4	LeftHandThumb3
LeftHandIndex1	LeftHand
LeftHandIndex2	LeftHandIndex1
LeftHandIndex3	LeftHandIndex2
LeftHandIndex4	LeftHandIndex3
LeftHandMiddle1	LeftHand
LeftHandMiddle2	LeftHandMiddle1
LeftHandMiddle3	LeftHandMiddle2
LeftHandMiddle4	LeftHandMiddle3
LeftHandRing1	LeftHand
LeftHandRing2	LeftHandRing1
LeftHandRing3	LeftHandRing2
LeftHandRing4	LeftHandRing3
LeftHandPinky1	LeftHand
LeftHandPinky2	LeftHandPinky1
LeftHandPinky3	LeftHandPinky2
LeftHandPinky4	LeftHandPinky3
RightShoulder	Spine2
RightArm	RightShoulder
RightForeArm	RightArm
RightHand	RightForeArm
RightHandPinky1	RightHand
RightHandPinky2	RightHandPinky1
RightHandPinky3	RightHandPinky2
RightHandPinky4	RightHandPinky3
RightHandRing1	RightHand
RightHandRing2	RightHandRing1
RightHandRing3	RightHandRing2
RightHandRing4	RightHandRing3
RightHandMiddle1	RightHand
RightHandMiddle2	RightHandMiddle1
RightHandMiddle3	RightHandMiddle2
RightHandMiddle4	RightHandMiddle3
RightHandIndex1	RightHand
RightHandIndex2	RightHandIndex1
RightHandIndex3	RightHandIndex2
RightHandIndex4	RightHandIndex3
RightHandThumb1	RightHand
RightHandThumb2	RightHandThumb1
RightHandThumb3	RightHandThumb2
RightHandThumb4	RightHandThumb3
LeftUpLeg	Hips
LeftLeg	LeftUpLeg
LeftFoot	LeftLeg
LeftToeBase	LeftFoot
RightUpLeg	Hips
RightLeg	RightUpLeg
RightFoot	RightLeg
RightToeBase	RightFoot
[BasePosition]
Hips	0	0	0	0	0	0	1
Spine	0	0	0	0	0	0	1
Spine1	0	0	0	0	0	0	1
Spine2	0	0	0	0	0	0	1
Neck	0	0	0	0	0	0	1
Head	0	0	0	0	0	0	1
LeftEye	0	0	0	0	0	0	1
RightEye	0	0	0	0	0	0	1
LeftShoulder	0	0	0	0	0	0	1
LeftArm	0	0	0	0	0	0	1
LeftForeArm	0	0	0	0	0	0	1
LeftHand	0	0	0	0	0	0	1
LeftHandThumb1	0	0	0	0	0	0	1
LeftHandThumb2	0	0	0	0	0	0	1
LeftHandThumb3	0	0	0	0	0	0	1
LeftHandThumb4	0	0	0	0	0	0	1
LeftHandIndex1	0	0	0	0	0	0	1
LeftHandIndex2	0	0	0	0	0	0	1
LeftHandIndex3	0	0	0	0	0	0	1
LeftHandIndex4	0	0	0	0	0	0	1
LeftHandMiddle1	0	0	0	0	0	0	1
LeftHandMiddle2	0	0	0	0	0	0	1
LeftHandMiddle3	0	0	0	0	0	0	1
LeftHandMiddle4	0	0	0	0	0	0	1
LeftHandRing1	0	0	0	0	0	0	1
LeftHandRing2	0	0	0	0	0	0	1
LeftHandRing3	0	0	0	0	0	0	1
LeftHandRing4	0	0	0	0	0	0	1
LeftHandPinky1	0	0	0	0	0	0	1
LeftHandPinky2	0	0	0	0	0	0	1
LeftHandPinky3	0	0	0	0	0	0	1
LeftHandPinky4	0	0	0	0	0	0	1
RightShoulder	0	0	0	0	0	0	1
RightArm	0	0	0	0	0	0	1
RightForeArm	0	0	0	0	0	0	1
RightHand	0	0	0	0	0	0	1
RightHandPinky1	0	0	0	0	0	0	1
RightHandPinky2	0	0	0	0	0	0	1
RightHandPinky3	0	0	0	0	0	0	1
RightHandPinky4	0	0	0	0	0	0	1
RightHandRing1	0	0	0	0	0	0	1
RightHandRing2	0	0	0	0	0	0	1
RightHandRing3	0	0	0	0	0	0	1
RightHandRing4	0	0	0	0	0	0	1
RightHandMiddle1	0	0	0	0	0	0	1
RightHandMiddle2	0	0	0	0	0	0	1
RightHandMiddle3	0	0	0	0	0	0	1
RightHandMiddle4	0	0	0	0	0	0	1
RightHandIndex1	0	0	0	0	0	0	1
RightHandIndex2	0	0	0	0	0	0	1
RightHandIndex3	0	0	0	0	0	0	1
RightHandIndex4	0	0	0	0	0	0	1
RightHandThumb1	0	0	0	0	0	0	1
RightHandThumb2	0	0	0	0	0	0	1
RightHandThumb3	0	0	0	0	0	0	1
RightHandThumb4	0	0	0	0	0	0	1
LeftUpLeg	0	0	0	0	0	0	1
LeftLeg	0	0	0	0	0	0	1
LeftFoot	0	0	0	0	0	0	1
LeftToeBase	0	0	0	0	0	0	1
RightUpLeg	0	0	0	0	0	0	1
RightLeg	0	0	0	0	0	0	1
RightFoot	0	0	0	0	0	0	1
RightToeBase	0	0	0	0	0	0	1
[Hips]
42	0.7450454831	909.5704346	73.46554565	-1.246493101	0.02601435781	-0.8036315441	1.0
43	0.4199249148	938.7295532	45.55984116	-0.5835828781	0.02524745464	-0.4464356303	1.0
44	0.1536830515	965.4082031	20.88023758	-0.03891419247	0.0223530028	-0.1546609253	1.0
[Spine]
42	0	101.8159943	1.315000057	8.52089119	-0.1780614853	0.7845541239	1.0
43	0	101.8159943	1.315000057	8.526306152	-6.992584229	-0.6082165241	1.0
44	0	101.8159943	1.315000057	8.549406052	-12.86760902	-1.797769785	1.0
[Spine1]
42	0	100.8349991	-10.00800037	-8.518821716	-0.1208734512	0.01841235161	1.0
43	0	100.8349991	-10.00800037	-8.525218964	-6.953310013	1.054237843	1.0
44	0	100.8349991	-10.00800037	-8.5489254	-12.84511852	1.952338457	1.0
[Spine2]
42	0	91	-13.73399925	0.001331451698	-0.1224164963	0.0003772735945	1.0
43	0	91	-13.73399925	0.0004777801514	-7.031683922	0.0001696199033	1.0
44	0	91	-13.73399925	-0.0001206727466	-12.99012089	2.786973528e-05	1.0
[Neck]
42	0	166.7169952	-25.16200066	0.2603642046	0.1070461273	0.1778271645	1.0
43	0	166.7169952	-25.16200066	0.1202324629	7.02520752	0.07388240099	1.0
44	0	166.7169952	-25.16200066	0.007536672987	12.99062061	-0.00745924795	1.0
[Head]
42	0	96.17900085	16.84999847	0.6857802868	0.214302063	0.0412768051	1.0
43	0	96.17900085	16.84999847	0.3207303286	14.0505352	0.01826319285	1.0
44	0	96.17900085	16.84999847	0.02149168588	25.9812355	0.0001797311852	1.0
[LeftEye]
42	30.6760006	64.09500122	92.83599854	0	0	0	1.0
43	30.6760006	64.09500122	92.83599854	0	0	0	1.0
44	30.6760006	64.09500122	92.83599854	0	0	0	1.0
[RightEye]
42	-30.6760006	64.09500122	92.83499908	0	0	0	1.0
43	-30.6760006	64.09500122	92.83499908	0	0	0	1.0
44	-30.6760006	64.09500122	92.83499908	0	0	0	1.0
[LeftShoulder]
42	45.70400238	109.4599991	-26.28000069	-0.0001559163211	9.919076547e-06	0.003145476803	1.0
43	45.70400238	109.4599991	-26.28000069	-0.0002708786633	7.1534987e-06	0.00130256766	1.0
44	45.70400238	109.4599991	-26.28000069	-0.0003515404533	5.132330898e-06	1.032710134e-05	1.0
[LeftArm]
42	105.923996	-5.24600029	-22.32099915	24.92051697	-2.312896322e-05	-0.004532239866	1.0
43	105.923996	-5.24600029	-22.32099915	35.87067032	-7.940726209e-05	-0.001789375674	1.0
44	105.923996	-5.24600029	-22.32099915	45.04445267	-0.0001245398889	0.000131700217	1.0
[LeftForeArm]
42	278.414978	-0.0009999999311	0	1.017252634e-05	-100.1876755	-0.000203450516	1.0
43	278.414978	-0.0009999999311	0	1.144408543e-05	-100.1939011	-0.0002040862892	1.0
44	278.414978	-0.0009999999311	0	-2.076033095e-11	-99.99999237	-0.0001983642578	1.0
[LeftHand]
42	283.2879944	0	0	-5.892825127	-2.348110199	3.359269381	1.0
43	283.2879944	0	0	-5.893598557	-2.348065376	3.361179352	1.0
44	283.2879944	0	0	-5.894139767	-2.348033428	3.362517357	1.0
[LeftHandThumb1]
42	24.6609993	-15.75	26.8239994	-6.514019966	-5.59455204	5.266151905	1.0
43	24.6609993	-15.75	26.8239994	-6.515152931	-5.594491959	5.267381191	1.0
44	24.6609993	-15.75	26.8239994	-6.515947819	-5.594451427	5.268242836	1.0
[LeftHandThumb2]
42	32.29800034	-18.64699936	18.64699936	6.423937798	12.4303093	2.70753336	1.0
43	32.29800034	-18.64699936	18.64699936	6.422702789	12.43053341	2.707431793	1.0
44	32.29800034	-18.64699936	18.64699936	6.42183733	12.43069077	2.707363605	1.0
[LeftHandThumb3]
42	26.52600098	-15.31499958	15.31499958	-7.236746788	1.260910273	13.09566498	1.0
43	26.52600098	-15.31499958	15.31499958	-7.23722887	1.261115551	13.09559059	1.0
44	26.52600098	-15.31499958	15.31499958	-7.237567902	1.261259913	13.095541	1.0
[LeftHandThumb4]
42	19.54599953	-11.28499985	11.28499985	0	0	0	1.0
43	19.54599953	-11.28499985	11.28499985	0	0	0	1.0
44	19.54599953	-11.28499985	11.28499985	0	0	0	1.0
[LeftHandIndex1]
42	91.09299469	-5.170999527	22.60099792	-0.07289947569	2.677632809	-3.113129616	1.0
43	91.09299469	-5.170999527	22.60099792	-0.0727347061	2.67727685	-3.109582186	1.0
44	91.09299469	-5.170999527	22.60099792	-0.07261938602	2.677025795	-3.107094526	1.0
[LeftHandIndex2]
42	36.76399994	0	0	2.831985171e-07	1.808323077e-06	-4.351109237e-05	1.0
43	36.76399994	0	0	3.409015221e-07	7.935021245e-07	-1.89701932e-05	1.0
44	36.76399994	0	0	0	-0	0	1.0
[LeftHandIndex3]
42	28.83100128	0	0	1.985866902e-07	0.0002115453535	-0.002025824506	1.0
43	28.83100128	0	0	8.643401088e-07	9.208780102e-05	-0.0008391488227	1.0
44	28.83100128	0	0	1.242524945e-06	7.566101431e-06	-6.102133739e-06	1.0
[LeftHandIndex4]
42	23.92700005	0	0	0	0	0	1.0
43	23.92700005	0	0	0	0	0	1.0
44	23.92700005	0	0	0	0	0	1.0
[LeftHandMiddle1]
42	95.33399963	0	0	-0.0729194209	2.677684069	-3.113563061	1.0
43	95.33399963	0	0	-0.07274290919	2.677298069	-3.109760761	1.0
44	95.33399963	0	0	-0.07261938602	2.677025795	-3.107094526	1.0
[LeftHandMiddle2]
42	36.98199844	0	0	-1.064338107e-06	-8.586244803e-06	-1.089868056e-05	1.0
43	36.98199844	0	0	-2.482745458e-07	-2.596531203e-06	-1.427473126e-05	1.0
44	36.98199844	0	0	-3.05944603e-08	1.627367169e-06	-1.487454483e-05	1.0
[LeftHandMiddle3]
42	29.50900078	0	0	1.362754574e-06	0.0002373123716	-0.002200985327	1.0
43	29.50900078	0	0	1.317486294e-06	0.00010195293	-0.0009116415167	1.0
44	29.50900078	0	0	1.484300356e-06	5.840025096e-06	-7.303325219e-06	1.0
[LeftHandMiddle4]
42	28.3390007	0	0	0	0	0	1.0
43	28.3390007	0	0	0	0	0	1.0
44	28.3390007	0	0	0	0	0	1.0
[LeftHandRing1]
42	91.04499817	-0.4390000105	-18.65100098	-0.07288867235	2.677607536	-3.112889767	1.0
43	91.04499817	-0.4390000105	-18.65100098	-0.07273025066	2.677266598	-3.109483242	1.0
44	91.04499817	-0.4390000105	-18.65100098	-0.07261938602	2.677025795	-3.107094526	1.0
[LeftHandRing2]
42	31.54000092	0	0	1.959569005e-07	-3.989894282e-08	-1.558844815e-05	1.0
43	31.54000092	0	0	3.086227593e-07	5.077522403e-08	-7.003591236e-06	1.0
44	31.54000092	0	0	0	-0	0	1.0
[LeftHandRing3]
42	29.37700081	0	0	2.700159598e-07	0.0002230204991	-0.002160299104	1.0
43	29.37700081	0	0	1.257806872e-07	9.208069969e-05	-0.0008906839648	1.0
44	29.37700081	0	0	0	0	-3.180554719e-15	1.0
[LeftHandRing4]
42	26.47500038	0	0	0	0	0	1.0
43	26.47500038	0	0	0	0	0	1.0
44	26.47500038	0	0	0	0	0	1.0
[LeftHandPinky1]
42	80.77799988	-4.887000084	-38.06099701	-0.0728475377	2.677521706	-3.112001657	1.0
43	80.77799988	-4.887000084	-38.06099701	-0.07271331549	2.677230835	-3.109116793	1.0
44	80.77799988	-4.887000084	-38.06099701	-0.07261938602	2.677025795	-3.107094526	1.0
[LeftHandPinky2]
42	36	0	0	-1.192879608e-06	-1.081023402e-05	-2.666236469e-05	1.0
43	36	0	0	-4.991712785e-07	-4.392471055e-06	-7.406398709e-06	1.0
44	36	0	0	0	-0	0	1.0
[LeftHandPinky3]
42	21.14200211	0	0	2.131171414e-06	0.0002351633157	-0.002185039455	1.0
43	21.14200211	0	0	9.893688002e-07	9.747622244e-05	-0.0009009117493	1.0
44	21.14200211	0	0	0	0	-3.180554719e-15	1.0
[LeftHandPinky4]
42	19.75699997	0	0	0	0	0	1.0
43	19.75699997	0	0	0	0	0	1.0
44	19.75699997	0	0	0	0	0	1.0
[RightShoulder]
42	-45.70000076	109.4620056	-26.28000069	-0.0001549572189	2.833726739e-06	-0.003144555259	1.0
43	-45.70000076	109.4620056	-26.28000069	-0.000270388613	4.359269951e-06	-0.001301889541	1.0
44	-45.70000076	109.4620056	-26.28000069	-0.0003513909178	5.499934105e-06	-9.832506294e-06	1.0
[RightArm]
42	-105.9280014	-5.248000145	-22.32099915	24.92050934	3.299825039e-06	0.004610560834	1.0
43	-105.9280014	-5.248000145	-22.32099915	35.87065887	1.729442556e-05	0.001864879159	1.0
44	-105.9280014	-5.248000145	-22.32099915	45.04444122	2.511867933e-05	-6.06105823e-05	1.0
[RightForeArm]
42	-278.414978	0	0	-2.873739504e-05	100.1874542	-9.15527653e-06	1.0
43	-278.414978	0	0	-4.177094161e-05	100.1936722	-1.344681095e-05	1.0
44	-278.414978	0	0	-4.577636719e-05	99.99977112	-1.525878906e-05	1.0
[RightHand]
42	-283.2879944	0	0.0009999999311	-4.680945396	2.274781227	-2.602120638	1.0
43	-283.2879944	0	0.0009999999311	-4.681720734	2.274746895	-2.604028225	1.0
44	-283.2879944	0	0.0009999999311	-4.682264328	2.274722099	-2.605365753	1.0
[RightHandPinky1]
42	-80.76699829	-4.885000229	-38.06000137	-0.05239848793	-2.479354858	2.418230534	1.0
43	-80.76699829	-4.885000229	-38.06000137	-0.05227237567	-2.479122162	2.415337563	1.0
44	-80.76699829	-4.885000229	-38.06000137	-0.05218460411	-2.478958607	2.413309574	1.0
[RightHandPinky2]
42	-36	0	0.0009999999311	-1.811414222e-06	0.001596469549	1.329844054e-05	1.0
43	-36	0	0.0009999999311	-2.852017815e-06	0.001598863164	9.16881072e-06	1.0
44	-36	0	0.0009999999311	-3.161234417e-06	0.001599458396	5.223875633e-06	1.0
[RightHandPinky3]
42	-21.14200211	0	0	-6.996997399e-07	-0.000183185286	0.002187124453	1.0
43	-21.14200211	0	0	2.036892113e-07	-8.435527707e-05	0.0008972702781	1.0
44	-21.14200211	0	0	5.60132662e-07	-1.428134328e-05	-6.352884157e-06	1.0
[RightHandPinky4]
42	-19.75699997	0	0	0	0	0	1.0
43	-19.75699997	0	0	0	0	0	1.0
44	-19.75699997	0	0	0	0	0	1.0
[RightHandRing1]
42	-91.03599548	-0.4390000105	-18.65100098	-0.05243762583	-2.477837563	2.419118643	1.0
43	-91.03599548	-0.4390000105	-18.65100098	-0.05228900537	-2.477560997	2.41570282	1.0
44	-91.03599548	-0.4390000105	-18.65100098	-0.05218533054	-2.477367401	2.413308144	1.0
[RightHandRing2]
42	-31.54000092	0	0	-1.272264171e-06	8.204744972e-07	3.670729348e-05	1.0
43	-31.54000092	0	0	-1.898515848e-06	1.273817361e-06	6.05410969e-05	1.0
44	-31.54000092	0	0	-2.031147005e-06	1.817219982e-06	7.945155812e-05	1.0
[RightHandRing3]
42	-29.37700081	0	0	-9.019573781e-07	-0.0001680276764	0.002165579703	1.0
43	-29.37700081	0	0	-3.044991956e-07	-6.919530279e-05	0.0008926247247	1.0
44	-29.37700081	0	0	3.180554719e-15	-0	3.180554719e-15	1.0
[RightHandRing4]
42	-26.47500038	0	0	0	0	0	1.0
43	-26.47500038	0	0	0	0	0	1.0
44	-26.47500038	0	0	0	0	0	1.0
[RightHandMiddle1]
42	-95.32500458	0	0	-0.05246705562	-2.477891922	2.419794083	1.0
43	-95.32500458	0	0	-0.05230108649	-2.477583408	2.415981293	1.0
44	-95.32500458	0	0	-0.05218533054	-2.477367401	2.413308144	1.0
[RightHandMiddle2]
42	-36.98199844	0	0	-1.185796691e-06	6.11379528e-06	1.82682038e-06	1.0
43	-36.98199844	0	0	-2.052799573e-06	7.512007869e-06	3.108409373e-06	1.0
44	-36.98199844	0	0	-2.294271553e-06	8.252673069e-06	5.294844414e-06	1.0
[RightHandMiddle3]
42	-29.50900078	0	0	1.917151394e-06	-0.002204098273	0.002195899608	1.0
43	-29.50900078	0	0	3.291706435e-06	-0.002104172716	0.0008995634271	1.0
44	-29.50900078	0	0	3.847170774e-06	-0.002032936551	-8.181138583e-06	1.0
[RightHandMiddle4]
42	-28.3390007	0	0.0009999999311	0	0	0	1.0
43	-28.3390007	0	0.0009999999311	0	0	0	1.0
44	-28.3390007	0	0.0009999999311	0	0	0	1.0
[RightHandIndex1]
42	-91.08300018	-5.167999744	22.60099792	-0.05245162547	-2.477841377	2.419360399	1.0
43	-91.08300018	-5.167999744	22.60099792	-0.05229794979	-2.477562428	2.415802479	1.0
44	-91.08300018	-5.167999744	22.60099792	-0.05219040811	-2.477367401	2.413308144	1.0
[RightHandIndex2]
42	-36.76399994	0	0	6.874441851e-07	-2.330353936e-07	-5.351001164e-06	1.0
43	-36.76399994	0	0	8.652630186e-07	-1.781527544e-06	-6.97478572e-06	1.0
44	-36.76399994	0	0	7.136011959e-07	-2.196226433e-06	-4.386827186e-06	1.0
[RightHandIndex3]
42	-28.83100128	0	0	2.033882538e-06	-0.0001655201049	0.00202462892	1.0
43	-28.83100128	0	0	8.707769439e-07	-6.822883734e-05	0.0008345057722	1.0
44	-28.83100128	0	0	-3.180554719e-15	0	0	1.0
[RightHandIndex4]
42	-23.92700005	0	0	0	0	0	1.0
43	-23.92700005	0	0	0	0	0	1.0
44	-23.92700005	0	0	0	0	0	1.0
[RightHandThumb1]
42	-24.64799881	-15.72700024	26.82600021	-7.533531666	7.620325089	-5.02559948	1.0
43	-24.64799881	-15.72700024	26.82600021	-7.53467083	7.620259762	-5.026868343	1.0
44	-24.64799881	-15.72700024	26.82600021	-7.535468578	7.620213032	-5.027759075	1.0
[RightHandThumb2]
42	-32.29800034	-18.64699936	18.64699936	7.100202084	-14.10457039	-3.792458057	1.0
43	-32.29800034	-18.64699936	18.64699936	7.098965645	-14.10478878	-3.792363167	1.0
44	-32.29800034	-18.64699936	18.64699936	7.098098755	-14.10494041	-3.792299271	1.0
[RightHandThumb3]
42	-26.52600098	-15.31399918	15.31399918	-3.949651718	-6.714294434	-14.22203922	1.0
43	-26.52600098	-15.31399918	15.31399918	-3.9501369	-6.714507103	-14.22192001	1.0
44	-26.52600098	-15.31399918	15.31399918	-3.950477362	-6.714655399	-14.22183895	1.0
[RightHandThumb4]
42	-19.54599953	-11.28499985	11.28499985	0	0	0	1.0
43	-19.54599953	-11.28499985	11.28499985	0	0	0	1.0
44	-19.54599953	-11.28499985	11.28499985	0	0	0	1.0
[LeftUpLeg]
42	82.07800293	-67.51699829	-15.99599934	-24.19863319	-0.4009937942	0.5071049333	1.0
43	82.07800293	-67.51699829	-15.99599934	-23.00932503	-0.3092001975	0.1712095439	1.0
44	82.07800293	-67.51699829	-15.99599934	-21.53963852	-0.2342165262	-0.1015310436	1.0
[LeftLeg]
42	0	-443.7049866	2.845999956	62.04960632	0.2016851902	0.5804470778	1.0
43	0	-443.7049866	2.845999956	54.34939194	0.2102401704	0.3986116648	1.0
44	0	-443.7049866	2.845999956	46.84747314	0.2191322595	0.2437617928	1.0
[LeftFoot]
42	0	-444.2789917	-29.8219986	-24.23168182	-0.009620148689	-0.1426481307	1.0
43	0	-444.2789917	-29.8219986	-22.03022957	0.01711576059	0.03764182329	1.0
44	0	-444.2789917	-29.8219986	-19.86202621	0.03816577792	0.1843804419	1.0
[LeftToeBase]
42	0	-87.28699493	107.1060028	-15.03533649	-5.045724549e-08	-4.078970761e-08	1.0
43	0	-87.28699493	107.1060028	-10.89193439	-2.101493024e-08	-4.154611766e-09	1.0
44	0	-87.28699493	107.1060028	-7.118030548	-2.785293107e-09	1.776537317e-08	1.0
[RightUpLeg]
42	-82.07800293	-67.51699829	-15.99599934	-39.42008209	0.5333069563	0.8057986498	1.0
43	-82.07800293	-67.51699829	-15.99599934	-33.39533234	0.3698313832	0.5516860485	1.0
44	-82.07800293	-67.51699829	-15.99599934	-27.43210602	0.2388181388	0.3434969485	1.0
[RightLeg]
42	0	-443.7049866	2.861999989	40.98318481	-0.4556369781	-0.3939955235	1.0
43	0	-443.7049866	2.861999989	43.07955551	-0.3185581565	-0.2881354392	1.0
44	0	-443.7049866	2.861999989	43.61647034	-0.2090162486	-0.1980819404	1.0
[RightFoot]
42	0	-444.2770081	-29.83799934	-0.3158607483	-0.02017005533	-0.04718846083	1.0
43	0	-444.2770081	-29.83799934	-9.100099564	-0.01892632432	-0.08103764057	1.0
44	0	-444.2770081	-29.83799934	-16.14505577	-0.01802991703	-0.1086153984	1.0
[RightToeBase]
42	0	-87.28699493	107.1060028	-1.515573604e-05	-2.909377805e-08	-1.999551955e-07	1.0
43	0	-87.28699493	107.1060028	-1.515573604e-05	-2.909377805e-08	-1.999551955e-07	1.0
44	0	-87.28699493	107.1060028	-1.515573604e-05	-2.909377805e-08	-1.999551955e-07	1.0
[EndOfFile]
